<svg width="141.732" height="110" xmlns="http://www.w3.org/2000/svg">

 <g>
  <title>background</title>
  <rect fill="none" id="canvas_background" height="112" width="143.732" y="-1" x="-1"/>
 </g>
 <g>
  <title>Layer 1</title>
  <path fill="#007fff" id="svg_1" d="m140.289,8.594c0.011,-0.17 0.025,-0.34 0.025,-0.514c0,-4.449 -3.617,-8.055 -8.082,-8.055l-123.621,0c-0.172,-0.011 -0.341,-0.025 -0.515,-0.025c-4.472,0 -8.096,3.617 -8.096,8.08c0,0.174 0.019,0.344 0.025,0.516l0,69.007c-0.009,0.17 -0.025,0.34 -0.025,0.514c0,4.463 3.624,8.082 8.099,8.082l62.061,0l37.777,21.551l-10.744,-21.551l35.027,0c4.471,0 8.094,-3.619 8.094,-8.082c0,-0.174 -0.018,-0.344 -0.025,-0.514l0,-69.009z"/>
 </g>
</svg>